<?xml version="1.0" encoding="UTF-8"?>
<svg xmlns="http://www.w3.org/2000/svg" xmlns:xlink="http://www.w3.org/1999/xlink" width="800px" height="800px" viewBox="0 0 800 800" version="1.1">
<g id="surface1">
<path style=" stroke:none;fill-rule:nonzero;fill:rgb(79.607844%,21.960784%,21.568628%);fill-opacity:1;" d="M 0 250 L 0 500 L 225 500 L 225 550 L 400 550 L 400 500 L 800 500 L 800 250 Z M 0 250 "/>
<path style=" stroke:none;fill-rule:nonzero;fill:rgb(100%,100%,100%);fill-opacity:1;" d="M 136.550781 300 L 50 300 L 50 450 L 136.550781 450 L 136.550781 340.277344 L 180.585938 340.277344 L 180.585938 450 L 224.621094 450 L 224.621094 300 Z M 268.65625 300 L 268.65625 500 L 356.726562 500 L 356.726562 450 L 443.273438 450 L 443.273438 300 Z M 399.238281 409.722656 L 356.726562 409.722656 L 356.726562 340.277344 L 399.238281 340.277344 Z M 573.863281 300 L 487.308594 300 L 487.308594 450 L 573.863281 450 L 573.863281 340.277344 L 617.894531 340.277344 L 617.894531 450 L 661.929688 450 L 661.929688 340.277344 L 705.964844 340.277344 L 705.964844 450 L 750 450 L 750 300 Z M 573.863281 300 "/>
</g>
</svg>
