<?xml version="1.0" encoding="UTF-8"?>
<svg xmlns="http://www.w3.org/2000/svg" xmlns:xlink="http://www.w3.org/1999/xlink" width="800px" height="800px" viewBox="0 0 800 800" version="1.1">
<g id="surface1">
<path style=" stroke:none;fill-rule:nonzero;fill:rgb(32.549021%,75.686276%,87.058824%);fill-opacity:1;" d="M 466.972656 399.398438 C 466.972656 363.539062 436.988281 334.460938 400 334.460938 C 363.015625 334.460938 333.027344 363.539062 333.027344 399.398438 C 333.027344 435.261719 363.015625 464.335938 400 464.335938 C 436.988281 464.335938 466.972656 435.261719 466.972656 399.398438 Z M 466.972656 399.398438 "/>
<path style=" stroke:none;fill-rule:evenodd;fill:rgb(32.549021%,75.686276%,87.058824%);fill-opacity:1;" d="M 617.511719 278.84375 C 631.652344 223.121094 649.429688 119.785156 586.761719 84.753906 C 524.382812 49.875 443.210938 116.710938 400.347656 156.828125 C 357.609375 117.109375 274.15625 50.558594 211.539062 85.703125 C 149.1875 120.699219 168.414062 222.320312 182.871094 278.390625 C 124.707031 294.410156 25 328.910156 25 399.398438 C 25 469.683594 124.605469 507.21875 182.425781 523.222656 C 167.914062 579.605469 149.648438 679.773438 212.082031 714.691406 C 274.933594 749.828125 358.125 684.863281 401.386719 644.304688 C 444.523438 684.660156 524.914062 750.050781 587.304688 715.035156 C 649.890625 679.90625 633.589844 577.960938 619.132812 521.5625 C 675.183594 505.523438 775 468.808594 775 399.398438 C 775 329.585938 674.757812 294.808594 617.511719 278.84375 Z M 610.40625 491.675781 C 600.914062 462.539062 588.101562 431.558594 572.425781 399.550781 C 587.386719 368.300781 599.703125 337.71875 608.929688 308.773438 C 650.898438 320.570312 742.960938 347.53125 742.960938 399.398438 C 742.960938 451.75 654.613281 478.96875 610.40625 491.675781 Z M 571.25 688.148438 C 524.699219 714.273438 455.550781 651.738281 423.695312 622.023438 C 444.828125 599.609375 465.949219 573.554688 486.5625 544.621094 C 522.824219 541.503906 557.074219 536.40625 588.140625 529.441406 C 598.316406 569.335938 618.003906 661.90625 571.25 688.148438 Z M 228.089844 687.777344 C 181.535156 661.75 202.816406 572.363281 213.488281 530.832031 C 244.207031 537.421875 278.214844 542.164062 314.558594 545.019531 C 335.308594 573.328125 357.039062 599.351562 378.941406 622.140625 C 351.882812 647.519531 274.863281 713.925781 228.089844 687.777344 Z M 57.039062 399.398438 C 57.039062 346.851562 148.550781 320.082031 191.476562 308.316406 C 200.863281 337.914062 213.171875 368.859375 228.03125 400.15625 C 212.980469 431.914062 200.496094 463.351562 191.019531 493.300781 C 150.09375 481.941406 57.039062 451.976562 57.039062 399.398438 Z M 227.59375 112.589844 C 274.335938 86.355469 346.867188 150.246094 377.898438 179.003906 C 356.109375 201.6875 334.578125 227.515625 314.007812 255.664062 C 278.734375 258.832031 244.96875 263.921875 213.925781 270.742188 C 202.28125 225.519531 180.898438 138.792969 227.59375 112.589844 Z M 509.484375 289.425781 C 533.414062 292.355469 556.339844 296.25 577.867188 301.015625 C 571.40625 321.101562 563.351562 342.101562 553.863281 363.632812 C 540.109375 338.332031 525.347656 313.539062 509.484375 289.425781 Z M 400.359375 201.203125 C 415.136719 216.722656 429.933594 234.058594 444.496094 252.863281 C 414.960938 251.507812 385.382812 251.503906 355.851562 252.84375 C 370.421875 234.210938 385.351562 216.90625 400.359375 201.203125 Z M 246.414062 363.609375 C 237.082031 342.15625 229.097656 321.058594 222.582031 300.6875 C 243.980469 296.046875 266.800781 292.25 290.574219 289.371094 C 274.664062 313.429688 259.925781 338.210938 246.414062 363.609375 Z M 291.257812 511.640625 C 266.699219 508.984375 243.53125 505.382812 222.140625 500.867188 C 228.761719 480.136719 236.917969 458.585938 246.449219 436.671875 C 260.148438 462.332031 275.113281 487.355469 291.257812 511.640625 Z M 401.246094 599.789062 C 386.058594 583.898438 370.914062 566.328125 356.121094 547.425781 C 385.820312 548.558594 415.578125 548.558594 445.273438 547.273438 C 430.671875 566.519531 415.921875 584.117188 401.246094 599.789062 Z M 554.167969 435.554688 C 564.191406 457.710938 572.640625 479.140625 579.355469 499.523438 C 557.609375 504.335938 534.128906 508.210938 509.390625 511.085938 C 525.375 486.515625 540.371094 461.339844 554.167969 435.554688 Z M 468.683594 514.851562 C 423.253906 518 377.539062 517.964844 332.09375 515.109375 C 306.273438 478.539062 283.285156 440.074219 263.441406 400.144531 C 283.191406 360.296875 306.011719 321.910156 331.710938 285.394531 C 377.1875 282.0625 422.945312 282.050781 468.421875 285.414062 C 493.902344 321.925781 516.6875 360.214844 536.890625 399.703125 C 516.925781 439.53125 493.988281 477.996094 468.683594 514.851562 Z M 570.757812 111.664062 C 617.515625 137.8125 596.703125 230.679688 586.488281 271.066406 C 555.371094 264.101562 521.582031 258.921875 486.207031 255.703125 C 465.597656 227.25 444.246094 201.378906 422.808594 178.988281 C 454.238281 149.609375 524.453125 85.773438 570.757812 111.664062 Z M 570.757812 111.664062 "/>
</g>
</svg>
