<?xml version="1.0" encoding="UTF-8"?>
<svg xmlns="http://www.w3.org/2000/svg" xmlns:xlink="http://www.w3.org/1999/xlink" width="800px" height="800px" viewBox="0 0 800 800" version="1.1">
<defs>
<linearGradient id="linear0" gradientUnits="userSpaceOnUse" x1="6.0002" y1="32.999901" x2="235" y2="344" gradientTransform="matrix(1.7855,0,0,1.7855,33.495,47.36)">
<stop offset="0" style="stop-color:rgb(25.490196%,81.960784%,100%);stop-opacity:1;"/>
<stop offset="1" style="stop-color:rgb(74.117647%,20.392157%,99.607843%);stop-opacity:1;"/>
</linearGradient>
<linearGradient id="linear1" gradientUnits="userSpaceOnUse" x1="194.651001" y1="8.8182" x2="236.076004" y2="292.989014" gradientTransform="matrix(1.7855,0,0,1.7855,33.495,47.36)">
<stop offset="0" style="stop-color:rgb(100%,91.764706%,51.372549%);stop-opacity:1;"/>
<stop offset="0.0833" style="stop-color:rgb(100%,86.666667%,20.784314%);stop-opacity:1;"/>
<stop offset="1" style="stop-color:rgb(100%,65.882353%,0%);stop-opacity:1;"/>
</linearGradient>
</defs>
<g id="surface1">
<path style=" stroke:none;fill-rule:nonzero;fill:url(#linear0);" d="M 747.089844 153.648438 L 418.546875 741.140625 C 411.761719 753.269531 394.335938 753.34375 387.449219 741.273438 L 52.390625 153.703125 C 44.890625 140.550781 56.136719 124.617188 71.039062 127.28125 L 399.941406 186.070312 C 402.039062 186.445312 404.1875 186.441406 406.28125 186.058594 L 728.300781 127.363281 C 743.15625 124.65625 754.460938 140.46875 747.089844 153.648438 Z M 747.089844 153.648438 "/>
<path style=" stroke:none;fill-rule:nonzero;fill:url(#linear1);" d="M 556.609375 50.171875 L 313.476562 97.8125 C 309.480469 98.59375 306.519531 101.980469 306.28125 106.046875 L 291.324219 358.640625 C 290.976562 364.59375 296.4375 369.210938 302.242188 367.871094 L 369.933594 352.25 C 376.269531 350.789062 381.992188 356.367188 380.691406 362.734375 L 360.578125 461.21875 C 359.226562 467.84375 365.449219 473.511719 371.921875 471.546875 L 413.730469 458.84375 C 420.210938 456.875 426.441406 462.558594 425.070312 469.191406 L 393.109375 623.886719 C 391.109375 633.558594 403.980469 638.835938 409.347656 630.539062 L 412.933594 625 L 611.050781 229.621094 C 614.367188 223 608.648438 215.453125 601.375 216.855469 L 531.699219 230.300781 C 525.148438 231.566406 519.578125 225.46875 521.425781 219.058594 L 566.90625 61.410156 C 568.753906 54.988281 563.164062 48.886719 556.609375 50.171875 Z M 556.609375 50.171875 "/>
</g>
</svg>
