<?xml version="1.0" standalone="no"?>
<!DOCTYPE svg PUBLIC "-//W3C//DTD SVG 20010904//EN"
 "http://www.w3.org/TR/2001/REC-SVG-20010904/DTD/svg10.dtd">
<svg version="1.0" xmlns="http://www.w3.org/2000/svg"
 width="3333.000000pt" height="3333.000000pt" viewBox="0 0 3333.000000 3333.000000"
 preserveAspectRatio="xMidYMid meet">

<g transform="translate(0.000000,3333.000000) scale(0.100000,-0.100000)"
fill="#000000" stroke="none">
<path d="M25000 32290 l0 -1040 1040 0 1040 0 0 1040 0 1040 -1040 0 -1040 0
0 -1040z"/>
<path d="M12500 30210 l0 -1040 4165 0 4165 0 0 1040 0 1040 -4165 0 -4165 0
0 -1040z"/>
<path d="M22917 31243 c-4 -3 -7 -471 -7 -1040 l0 -1033 1045 0 1045 0 -2
1038 -3 1037 -1036 3 c-569 1 -1039 -1 -1042 -5z"/>
<path d="M10420 28125 l0 -1035 1035 0 1035 0 0 1035 0 1035 -1035 0 -1035 0
0 -1035z"/>
<path d="M20830 28120 l0 -1040 1040 0 1040 0 0 1040 0 1040 -1040 0 -1040 0
0 -1040z"/>
<path d="M25000 28120 l0 -1040 2080 0 2080 0 0 1040 0 1040 -2080 0 -2080 0
0 -1040z"/>
<path d="M2080 26040 l0 -1040 -1040 0 -1040 0 0 -1040 0 -1040 1045 0 1045 0
0 -1040 0 -1040 1040 0 1040 0 0 -1045 0 -1045 1040 0 1040 0 0 -1040 0 -1040
1040 0 1040 0 2 3123 3 3122 1038 3 1037 2 0 2080 0 2080 -4165 0 -4165 0 0
-1040z"/>
<path d="M22920 23955 l0 -3125 1040 0 1040 0 0 -3125 0 -3125 1040 0 1040 0
0 -6250 0 -6250 -6250 0 -6250 0 0 1040 0 1040 -1040 0 -1040 0 0 -1040 0
-1040 -5210 0 -5210 0 0 1040 0 1040 -1040 0 -1040 0 0 -2080 0 -2080 14580 0
14580 0 0 8330 0 8330 -1037 2 -1038 3 -3 3122 -2 3123 -1043 2 -1042 3 -3
2083 -2 2082 -1035 0 -1035 0 0 -3125z"/>
<path d="M12500 22915 l0 -2085 1040 0 1040 0 0 2085 0 2085 -1040 0 -1040 0
0 -2085z"/>
<path d="M18750 17710 l0 -1040 1040 0 1040 0 0 1040 0 1040 -1040 0 -1040 0
0 -1040z"/>
<path d="M4170 11455 l0 -5205 -1040 0 -1040 0 0 -1040 0 -1040 5205 0 5205 0
0 1040 0 1040 -3125 0 -3125 0 0 5205 0 5205 -1040 0 -1040 0 0 -5205z"/>
<path d="M20830 13540 l0 -3120 1040 0 1040 0 0 3120 0 3120 -1040 0 -1040 0
0 -3120z"/>
<path d="M14580 13540 l0 -1040 1040 0 1040 0 0 1040 0 1040 -1040 0 -1040 0
0 -1040z"/>
<path d="M16670 11460 l0 -1040 1040 0 1040 0 0 1040 0 1040 -1040 0 -1040 0
0 -1040z"/>
<path d="M18750 9370 l0 -1040 1040 0 1040 0 0 1040 0 1040 -1040 0 -1040 0 0
-1040z"/>
</g>
</svg>
